Coordinates
version=1
nRows=15
nColumns=34
inDegrees=yes

Units are S.I. units (second, meters, Newtons, ...)
If the header above contains a line with 'inDegrees', this indicates whether rotational values are in degrees (yes) or radians (no).

endheader
time	pelvis_tilt	pelvis_list	pelvis_rotation	pelvis_tx	pelvis_ty	pelvis_tz	hip_flexion_r	hip_adduction_r	hip_rotation_r	knee_angle_r	ankle_angle_r	subtalar_angle_r	mtp_angle_r	hip_flexion_l	hip_adduction_l	hip_rotation_l	knee_angle_l	ankle_angle_l	subtalar_angle_l	mtp_angle_l	lumbar_extension	lumbar_bending	lumbar_rotation	arm_flex_r	arm_add_r	arm_rot_r	elbow_flex_r	pro_sup_r	arm_flex_l	arm_add_l	arm_rot_l	elbow_flex_l	pro_sup_l
      0.00000000	      7.60271077	      2.67125751	    -25.62054454	      0.03793681	      1.00561838	     -0.01236354	     -4.77296037	     -6.25527906	      1.03124664	     14.84606831	     13.13920695	     -0.67495645	      0.00000000	     -2.76488118	     -5.55409860	     -0.23834448	     18.15242737	     12.08965532	     -2.23297944	      0.00000000	     -9.92648767	     -0.58646160	      1.37348056	     11.99619914	     -8.02307274	     21.54173174	     30.82149336	    113.10060701	      7.39548274	     -9.69800110	     12.11053600	     35.37178457	    116.31030212
      0.01666670	      7.64808240	      2.20653743	    -25.40613583	      0.03823314	      1.00623039	     -0.01229183	     -5.45198740	     -5.76283250	      0.66626672	     14.11653139	     12.32122742	     -0.64156479	      0.00000000	     -3.16755417	     -6.01817428	     -0.25334459	     17.83065805	     11.90381524	     -2.44305168	      0.00000000	    -10.16784057	     -0.08323929	      1.27237183	     11.85004033	     -8.06570035	     20.67803293	     31.11475682	    113.17334168	      7.75953165	     -9.67119493	     12.81017511	     34.53345512	    116.47046527
      0.03333330	      8.15730736	      2.06011590	    -25.15618362	      0.03986643	      1.00742385	     -0.01221618	     -6.95416062	     -5.82096545	      0.49375417	     12.61667603	     11.98928820	     -0.60795643	      0.00000000	     -4.24881281	     -5.92658616	     -0.18319818	     16.96536137	     11.90862562	     -1.79977925	      0.00000000	    -10.35597104	     -0.13618953	      1.40887491	     11.92213417	     -7.99663848	     20.88697931	     29.88974770	    113.60403257	      8.42143596	     -9.88652133	     15.16413068	     33.28304747	    116.86991015
      0.05000000	      7.88859865	      2.22792752	    -25.25539204	      0.04119011	      1.00736694	     -0.01177877	     -7.22982021	     -5.89486722	      0.49826930	     11.50393089	     11.55596708	     -0.24108232	      0.00000000	     -4.31601346	     -5.85203050	     -0.38424517	     16.36038500	     11.82578553	     -1.71179368	      0.00000000	     -9.81361814	     -0.20201531	      1.59636406	     11.61318066	     -8.09390747	     21.11503819	     29.62207378	    113.73532169	      8.25215714	     -9.87240943	     15.54454162	     32.95035067	    116.91769735
      0.06666670	      7.72537028	      2.27285912	    -25.26817202	      0.04081301	      1.00714126	     -0.01218795	     -7.19865661	     -5.88014279	      0.41210601	     11.12226184	     11.59528295	     -0.25314991	      0.00000000	     -4.27591362	     -5.85350685	     -0.50555760	     16.01581935	     11.84610411	     -1.73937757	      0.00000000	     -9.87084798	     -0.16015243	      1.59535379	     11.75434424	     -8.06248309	     21.16906966	     29.59691816	    113.76303996	      8.40650726	     -9.79305183	     15.63199970	     32.89989855	    116.92915307
      0.08333330	      7.98151697	      2.08174458	    -25.43672441	      0.04236010	      1.00792797	     -0.01145369	     -8.37126399	     -5.82912949	      0.55879257	      9.66145278	     11.03218171	      0.19008245	      0.00000000	     -5.30724465	     -5.85900017	     -0.53939935	     14.98015151	     11.59412744	     -1.48645892	      0.00000000	     -9.99942340	     -0.04837721	      1.79261526	     11.96691033	     -8.13088185	     22.27844814	     28.66539924	    114.23928650	      8.75113649	     -9.80976183	     17.06543236	     31.59524574	    117.12545330
      0.10000000	      7.95083409	      2.09352172	    -25.43628942	      0.04263651	      1.00779644	     -0.01142118	     -8.37933651	     -5.83789537	      0.55862254	      9.66198797	     11.03529362	      0.18820249	      0.00000000	     -5.31525456	     -5.86979842	     -0.54008809	     14.97766346	     11.59683921	     -1.48830089	      0.00000000	    -10.01070478	     -0.05111894	      1.79059202	     11.96509834	     -8.13598620	     22.27913725	     28.66307510	    114.23981178	      8.75455069	     -9.81241773	     17.06629469	     31.59606527	    117.12556554
      0.11666670	      7.80696997	      2.13418614	    -25.34710436	      0.04362936	      1.00724902	     -0.01096307	     -8.57066152	     -5.76310869	      0.62858131	      9.16639814	     11.46258407	      0.06972455	      0.00000000	     -5.58482085	     -5.88477470	     -0.37331218	     14.26786201	     12.01071092	     -1.47255638	      0.00000000	     -9.73467928	     -0.05496515	      1.77203680	     11.78387699	     -8.30661355	     22.63886540	     28.50757210	    114.39089027	      8.70675302	    -10.00778756	     17.51080993	     31.61217333	    117.19019388
      0.13333330	      7.78354775	      2.14601143	    -25.34674073	      0.04386254	      1.00703111	     -0.01095265	     -8.57575495	     -5.77115416	      0.62971378	      9.16485003	     11.46315683	      0.06972708	      0.00000000	     -5.59144472	     -5.88986671	     -0.37425231	     14.26540655	     12.01216878	     -1.47342935	      0.00000000	     -9.74519664	     -0.05176384	      1.76817684	     11.78249094	     -8.30869569	     22.64130227	     28.50578821	    114.39186511	      8.71509289	    -10.00964549	     17.51299933	     31.61483974	    117.19056881
      0.15000000	      7.71420984	      2.20291745	    -25.23359199	      0.04383806	      1.00687731	     -0.01147787	     -8.58431781	     -5.79893860	      0.64715384	      9.00124131	     11.55232322	      0.05207730	      0.00000000	     -5.57416830	     -5.85691249	     -0.42073152	     14.02454763	     12.11609026	     -1.50107952	      0.00000000	     -9.77970474	     -0.01578354	      1.72147038	     11.80378660	     -8.32574751	     22.73648860	     28.47746921	    114.42567808	      8.91501898	     -9.93581799	     17.62821120	     31.71218529	    117.20944840
      0.16666670	      7.69603076	      2.21147516	    -25.24016047	      0.04414410	      1.00680494	     -0.01140909	     -8.59451498	     -5.80097824	      0.64646673	      9.00297272	     11.55433968	      0.05071134	      0.00000000	     -5.57748758	     -5.86102298	     -0.41944547	     14.02308567	     12.11776694	     -1.50081839	      0.00000000	     -9.78532591	     -0.01853356	      1.71638196	     11.80140137	     -8.32745344	     22.73909390	     28.47527737	    114.42656210	      8.91831221	     -9.93302597	     17.63204838	     31.71322188	    117.21005639
      0.18333330	      8.15367896	      2.24225736	    -24.95422681	      0.04572459	      1.00741125	     -0.01141242	     -9.70121204	     -5.98571326	      0.54302806	      8.07271097	     11.44300230	     -0.18227881	      0.00000000	     -6.43792884	     -5.59769803	     -0.06394762	     13.27980218	     12.10517865	     -1.18863980	      0.00000000	    -10.03453097	     -0.22008188	      1.39461954	     12.00479344	     -8.56625218	     24.94528172	     27.81726968	    115.23094913	      9.23595424	    -10.38734570	     20.45260563	     31.29144791	    117.64101061
      0.20000000	      8.14083695	      2.24692672	    -24.96133183	      0.04593856	      1.00732214	     -0.01121645	     -9.70986718	     -5.98826380	      0.54369285	      8.07640695	     11.44513034	     -0.18310483	      0.00000000	     -6.43683829	     -5.60249669	     -0.06466538	     13.27808600	     12.10697047	     -1.19059814	      0.00000000	    -10.03850092	     -0.22059019	      1.38705432	     12.00176839	     -8.56857357	     24.94579662	     27.81496642	    115.23147127	      9.24214456	    -10.38264920	     20.45386965	     31.29345533	    117.64103152
      0.21666670	      8.12866877	      2.25466912	    -24.96627788	      0.04605831	      1.00723204	     -0.01116379	     -9.71573185	     -5.99359558	      0.54417178	      8.07758854	     11.44829446	     -0.18441438	      0.00000000	     -6.44011222	     -5.61003064	     -0.06582232	     13.27818847	     12.10891943	     -1.19282518	      0.00000000	    -10.04234672	     -0.21864505	      1.37949747	     11.99795612	     -8.57057508	     24.94635629	     27.81184268	    115.23190248	      9.24835819	    -10.37750753	     20.45545862	     31.29553709	    117.64116286
      0.23333330	      8.11975325	      2.25462588	    -24.98106761	      0.04621007	      1.00710369	     -0.01125914	     -9.71560711	     -6.01010798	      0.54901714	      8.05636909	     11.48590218	     -0.19685956	      0.00000000	     -6.43538831	     -5.59534513	     -0.08544743	     13.26797282	     12.12943407	     -1.21130202	      0.00000000	    -10.07051369	     -0.16958865	      1.32526256	     11.94599187	     -8.57519321	     24.95516230	     27.77745595	    115.23613697	      9.28504243	    -10.33754532	     20.47319690	     31.30851649	    117.64310006
